<svg width="24" height="24" viewBox="0 0 24 24" fill="none" xmlns="http://www.w3.org/2000/svg">
    <path
        d="M19.8198 9H16.8798C16.9529 8.67149 16.9931 8.33649 16.9998 8C16.9998 6.67392 16.473 5.40215 15.5353 4.46447C14.5976 3.52678 13.3259 3 11.9998 3C10.6737 3 9.40193 3.52678 8.46425 4.46447C7.52657 5.40215 6.99979 6.67392 6.99979 8C7.00643 8.33649 7.04663 8.67149 7.11979 9H4.17979L1.77979 21H22.2198L19.8198 9ZM11.9998 5C12.7954 5 13.5585 5.31607 14.1211 5.87868C14.6837 6.44129 14.9998 7.20435 14.9998 8C14.9998 9.73 13.2198 12.14 11.9998 13.53C10.7798 12.14 8.99979 9.73 8.99979 8C8.99979 7.20435 9.31586 6.44129 9.87846 5.87868C10.4411 5.31607 11.2041 5 11.9998 5ZM4.21978 19L5.81979 11H7.81979C8.74177 12.7301 9.91069 14.3167 11.2898 15.71L11.9998 16.42L12.7098 15.71C14.0853 14.316 15.2509 12.7294 16.1698 11H18.1698L19.7698 19H4.21978Z"
        fill="#1895F5" />
    <path d="M13 7H11V9H13V7Z" fill="#1895F5" />
</svg>
    