<svg width="20" height="20" viewBox="0 0 20 20" fill="none" xmlns="http://www.w3.org/2000/svg">
    <path
        d="M15.6799 18.7142H4.32564C3.51939 18.7142 2.74615 18.3939 2.17604 17.8238C1.60593 17.2537 1.28564 16.4805 1.28564 15.6742V4.31993C1.28716 3.51466 1.60811 2.74289 2.17806 2.17402C2.748 1.60514 3.52038 1.28564 4.32564 1.28564H15.6799C16.0784 1.28564 16.473 1.36413 16.8411 1.51662C17.2092 1.6691 17.5437 1.89261 17.8255 2.17437C18.1073 2.45613 18.3308 2.79062 18.4832 3.15876C18.6357 3.5269 18.7142 3.92146 18.7142 4.31993V15.6742C18.7142 16.4795 18.3947 17.2519 17.8258 17.8218C17.257 18.3917 16.4852 18.7127 15.6799 18.7142ZM4.32564 2.71422C4.1143 2.71346 3.90488 2.75444 3.70941 2.8348C3.51394 2.91516 3.33625 3.03331 3.18654 3.18249C3.03683 3.33167 2.91804 3.50894 2.83699 3.70413C2.75594 3.89931 2.71421 4.10858 2.71422 4.31993V15.6742C2.71422 16.1016 2.88399 16.5115 3.18619 16.8137C3.48839 17.1159 3.89827 17.2856 4.32564 17.2856H15.6799C15.8913 17.2856 16.1005 17.2439 16.2957 17.1629C16.4909 17.0818 16.6682 16.963 16.8174 16.8133C16.9665 16.6636 17.0847 16.4859 17.1651 16.2905C17.2454 16.095 17.2864 15.8856 17.2856 15.6742V4.31993C17.2856 3.89407 17.1165 3.48565 16.8153 3.18452C16.5142 2.88339 16.1058 2.71422 15.6799 2.71422H4.32564Z"
        fill="#1895F5"
    />
    <path
        d="M7.72571 10.7142C7.52845 10.7135 7.33362 10.6707 7.15429 10.5885C6.90347 10.4746 6.69113 10.2903 6.54303 10.058C6.39494 9.82568 6.31746 9.5554 6.32 9.27993V1.99993C6.32 1.81049 6.39526 1.62881 6.52921 1.49485C6.66316 1.3609 6.84485 1.28564 7.03429 1.28564C7.22373 1.28564 7.40541 1.3609 7.53936 1.49485C7.67332 1.62881 7.74857 1.81049 7.74857 1.99993V9.27993L9.09143 8.09136C9.3438 7.86606 9.67027 7.74153 10.0086 7.74153C10.3469 7.74153 10.6733 7.86606 10.9257 8.09136L12.3029 9.28564L12.2571 1.99993C12.2571 1.81049 12.3324 1.62881 12.4664 1.49485C12.6003 1.3609 12.782 1.28564 12.9714 1.28564C13.1609 1.28564 13.3426 1.3609 13.4765 1.49485C13.6105 1.62881 13.6857 1.81049 13.6857 1.99993V9.27993C13.6883 9.5554 13.6108 9.82568 13.4627 10.058C13.3146 10.2903 13.1022 10.4746 12.8514 10.5885C12.6081 10.7004 12.3374 10.7389 12.0725 10.6994C11.8076 10.6598 11.56 10.5438 11.36 10.3656L10 9.1885L8.64 10.3714C8.38734 10.5935 8.06212 10.7154 7.72571 10.7142ZM10.8571 15.1828H5.71429C5.52485 15.1828 5.34316 15.1075 5.20921 14.9736C5.07525 14.8396 5 14.6579 5 14.4685C5 14.2791 5.07525 14.0974 5.20921 13.9634C5.34316 13.8295 5.52485 13.7542 5.71429 13.7542H10.8571C11.0466 13.7542 11.2283 13.8295 11.3622 13.9634C11.4962 14.0974 11.5714 14.2791 11.5714 14.4685C11.5714 14.6579 11.4962 14.8396 11.3622 14.9736C11.2283 15.1075 11.0466 15.1828 10.8571 15.1828Z"
        fill="#1895F5"
    />
</svg>